<?xml version="1.0" standalone="no"?>
<!DOCTYPE svg PUBLIC "-//W3C//DTD SVG 20010904//EN"
 "http://www.w3.org/TR/2001/REC-SVG-20010904/DTD/svg10.dtd">
<svg version="1.0" xmlns="http://www.w3.org/2000/svg"
 width="892.000000pt" height="892.000000pt" viewBox="0 0 892.000000 892.000000"
 preserveAspectRatio="xMidYMid meet">
<metadata>
Created by potrace 1.14, written by Peter Selinger 2001-2017
</metadata>
<g transform="translate(0.000000,892.000000) scale(0.100000,-0.100000)"
fill="#000000" stroke="none">
<path d="M597 8913 c-4 -3 -17 -7 -29 -8 -13 -1 -40 -9 -62 -18 -21 -9 -40
-17 -43 -17 -11 0 -98 -65 -125 -94 -60 -62 -110 -154 -128 -236 -3 -14 -5
-1229 -5 -2700 l0 -2675 42 -85 c52 -106 121 -178 218 -226 74 -36 94 -42 164
-49 24 -3 46 -7 48 -9 3 -3 16 -1 29 4 14 6 26 6 29 0 3 -6 15 -6 30 0 15 6
27 6 30 -1 4 -5 11 -7 16 -3 6 3 34 6 62 5 88 -2 91 -2 114 4 12 3 24 1 28 -4
3 -6 18 -6 36 -1 20 6 39 6 50 -1 11 -5 24 -7 30 -3 6 3 34 6 62 5 29 -1 66
-1 82 0 36 2 52 1 85 -4 14 -2 30 1 37 5 6 5 14 5 17 -1 4 -6 16 -7 29 -2 12
5 31 5 42 1 11 -4 25 -3 32 2 7 5 14 5 17 -1 4 -6 18 -6 36 -1 19 5 30 5 30
-1 0 -6 5 -7 11 -4 14 9 107 10 115 2 4 -3 15 -2 25 3 11 7 20 7 24 0 3 -5 15
-6 27 -1 12 4 37 5 55 1 18 -5 33 -5 33 -1 0 7 68 6 76 -1 3 -3 20 -2 38 2 19
4 40 4 46 0 7 -4 26 -4 41 0 17 5 31 5 35 -1 3 -5 10 -7 15 -4 10 7 138 8 179
2 14 -2 30 1 37 5 6 5 14 5 17 -1 4 -6 16 -7 29 -2 12 5 31 5 42 1 11 -4 25
-3 32 2 7 5 14 5 17 -1 4 -6 18 -6 36 -1 19 5 30 5 30 -1 0 -6 5 -7 11 -4 14
9 107 10 115 2 4 -3 15 -2 25 3 11 7 20 7 24 0 3 -5 15 -6 27 -1 12 4 37 5 55
1 18 -5 33 -5 33 -1 0 7 68 6 76 -1 3 -3 20 -2 38 2 19 4 40 4 46 0 7 -4 26
-4 41 0 17 5 31 5 35 -1 3 -5 10 -7 15 -4 10 7 138 8 179 2 14 -2 30 1 37 5 6
5 14 5 17 -1 4 -6 16 -7 29 -2 12 5 31 5 42 1 11 -4 25 -3 32 2 7 5 14 5 17
-1 4 -6 18 -6 36 -1 19 5 30 5 30 -1 0 -6 5 -7 11 -4 14 9 107 10 115 2 4 -3
15 -2 25 3 11 7 20 7 24 0 3 -5 15 -6 27 -1 12 4 37 5 55 1 18 -5 33 -4 33 0
0 7 48 5 56 -3 3 -3 21 -1 40 3 18 4 34 4 34 -1 0 -5 10 -5 22 0 13 5 33 5 45
0 13 -5 25 -4 28 1 4 7 13 7 24 0 10 -5 22 -6 26 -2 4 4 1 -4 -6 -18 -8 -14
-17 -27 -20 -30 -4 -3 -21 -34 -40 -70 -18 -36 -36 -67 -39 -70 -3 -3 -11 -16
-18 -30 -6 -14 -34 -65 -61 -115 -28 -49 -60 -108 -71 -130 -11 -22 -25 -47
-30 -55 -32 -52 -140 -252 -140 -260 0 -5 -5 -10 -11 -10 -5 0 -7 -5 -4 -10 3
-5 1 -10 -4 -10 -6 0 -11 -4 -11 -9 0 -5 -17 -40 -38 -78 -49 -86 -107 -193
-144 -263 -16 -30 -33 -59 -37 -65 -9 -11 -93 -165 -124 -227 -11 -21 -23 -38
-28 -38 -5 0 -8 -5 -7 -12 4 -16 -57 -26 -102 -16 -19 4 -36 4 -38 -1 -1 -4
-24 -5 -50 -1 -26 3 -58 3 -72 0 -14 -3 -45 -3 -70 0 -72 9 -115 -1 -116 -27
-1 -12 -4 -28 -7 -37 -3 -8 -2 -18 3 -21 6 -3 6 -15 0 -30 -5 -14 -6 -25 -2
-25 5 0 5 -25 2 -55 -3 -30 -3 -55 2 -55 4 0 3 -11 -2 -25 -5 -14 -6 -25 -2
-25 5 0 5 -25 2 -56 -3 -30 -3 -57 2 -60 4 -3 4 -13 -1 -23 -21 -39 -9 -41
214 -40 11 0 67 -1 124 -1 57 -1 105 1 108 3 2 3 17 2 31 -2 15 -4 39 -4 55 0
15 4 27 3 27 -1 0 -5 12 -5 27 -1 16 4 39 5 53 1 14 -3 35 -4 48 -1 12 3 81 4
152 1 72 -3 144 -2 160 1 17 4 32 4 34 0 2 -3 46 -4 98 -1 51 3 125 3 163 0
39 -3 81 -2 95 1 14 3 36 3 50 -1 14 -4 37 -3 52 1 16 4 28 4 28 -1 0 -5 12
-5 28 -1 15 4 38 5 52 1 14 -4 37 -3 52 1 14 4 28 5 31 3 3 -3 42 -4 132 -3
11 0 76 0 145 0 69 0 130 0 135 0 16 0 338 0 360 0 11 0 76 0 145 0 69 0 130
0 135 0 6 0 68 0 138 -1 71 -1 131 1 134 3 2 3 17 2 31 -2 15 -4 39 -4 55 0
15 4 27 3 27 -1 0 -5 12 -5 28 -1 15 4 39 4 54 0 15 -4 29 -5 32 -2 3 3 23 5
46 5 42 -1 43 1 41 53 -1 17 -1 44 0 60 0 17 1 35 0 40 0 6 -2 24 -4 40 -1 17
1 42 4 56 4 15 3 32 -2 40 -4 7 -4 19 2 25 7 8 6 14 -1 19 -6 3 -7 11 -4 17 4
6 6 27 5 47 -5 89 -4 86 -36 84 -16 -1 -46 -2 -65 -2 -19 -1 -46 -1 -60 -2
-14 0 -29 -1 -35 -1 -5 1 -40 1 -77 2 -37 1 -71 -1 -77 -4 -5 -4 -12 -2 -15 3
-3 5 -21 6 -41 1 -43 -10 -36 -18 -143 180 -19 36 -58 108 -87 160 -111 199
-126 227 -161 290 -19 36 -47 88 -62 115 -49 88 -86 155 -118 213 -16 32 -45
84 -64 117 -53 95 -71 127 -93 170 -12 22 -27 47 -35 57 -7 9 -15 22 -16 30
-1 7 -12 29 -24 48 -12 19 -22 40 -22 47 0 6 -3 13 -7 15 -11 4 -43 63 -43 78
0 7 5 8 17 1 10 -5 26 -5 41 0 15 6 31 5 43 -1 11 -6 24 -8 30 -4 14 8 107 9
115 1 4 -3 14 -2 23 3 10 5 23 5 30 1 7 -5 28 -5 47 -1 19 4 34 4 34 -1 0 -5
11 -4 25 1 15 6 26 6 30 -1 4 -5 11 -7 16 -3 6 3 34 6 62 5 88 -2 91 -2 114 4
12 3 24 1 28 -4 3 -6 18 -6 36 -1 20 6 39 6 50 -1 11 -5 24 -7 30 -3 14 8 107
9 115 1 4 -3 14 -2 23 3 10 5 23 5 30 1 7 -5 28 -5 47 -1 19 4 34 4 34 -1 0
-5 11 -4 25 1 15 6 26 6 30 -1 4 -5 11 -7 16 -3 6 3 34 6 62 5 88 -2 91 -2
114 4 12 3 24 1 28 -4 3 -6 18 -6 36 -1 20 6 39 6 50 -1 11 -5 24 -7 30 -3 6
3 34 6 62 5 29 -1 66 -1 82 0 36 2 52 1 85 -4 14 -2 30 1 37 5 6 5 14 5 17 -1
4 -6 16 -7 29 -2 12 5 31 5 42 1 11 -4 25 -3 32 2 7 5 14 5 17 -1 4 -6 18 -6
36 -1 19 5 30 5 30 -1 0 -6 5 -7 11 -4 14 9 107 10 115 2 4 -3 15 -2 25 3 11
7 20 7 24 0 3 -5 15 -6 27 -1 12 4 37 5 55 1 18 -5 33 -5 33 -1 0 7 68 6 76
-1 3 -3 20 -2 38 2 19 4 40 4 46 0 7 -4 26 -4 41 0 17 5 31 5 35 -1 3 -5 10
-7 15 -4 10 7 138 8 179 2 14 -2 30 1 37 5 6 5 14 5 17 -1 4 -6 16 -7 29 -2
12 5 31 5 42 1 11 -4 25 -3 32 2 7 5 14 5 17 -1 4 -6 18 -6 36 -1 19 5 30 5
30 -1 0 -6 5 -7 11 -4 14 9 107 10 115 2 4 -3 15 -2 25 3 11 7 20 7 24 0 3 -5
15 -6 27 -1 12 4 37 5 55 1 18 -5 33 -5 33 -1 0 7 68 6 76 -1 3 -3 20 -2 38 2
19 4 40 4 46 0 7 -4 25 -4 40 0 15 4 33 4 41 0 7 -5 16 -7 19 -5 3 2 31 6 63
10 105 11 210 62 287 139 46 45 58 61 71 88 5 13 18 39 29 58 10 19 16 38 13
43 -2 4 0 7 4 7 5 0 10 8 12 18 10 46 10 5340 0 5377 -5 22 -12 50 -14 62 -8
37 -72 138 -112 178 -47 48 -123 96 -188 121 -49 19 -140 19 -3921 21 -2129 2
-3874 0 -3877 -4z"/>
</g>
</svg>
