<svg width="213" height="223" viewBox="0 0 213 223" fill="none" xmlns="http://www.w3.org/2000/svg">
<path d="M106.5 136L142.44 201.25H70.5599L106.5 136Z" fill="#A8A5A5"/>
<rect width="213" height="153" rx="12" fill="#D9D9D9"/>
<rect x="14" y="14" width="185" height="103" fill="#FCFCFC"/>
<rect x="14" y="14" width="185" height="103" fill="#B3DFF8"/>
<ellipse cx="105.5" cy="136.5" rx="8.5" ry="7.5" fill="white"/>
<rect x="65" y="191" width="83" height="12" fill="#D9D9D9"/>
<ellipse cx="65" cy="42" rx="15" ry="16" fill="black"/>
<ellipse cx="65" cy="42" rx="15" ry="16" fill="black"/>
<ellipse cx="141" cy="42" rx="15" ry="16" fill="black"/>
<ellipse cx="141" cy="42" rx="15" ry="16" fill="black"/>
<ellipse cx="69.5" cy="37" rx="4.5" ry="5" fill="white"/>
<ellipse cx="69.5" cy="37" rx="4.5" ry="5" fill="white"/>
<ellipse cx="148.5" cy="37" rx="4.5" ry="5" fill="white"/>
<ellipse cx="148.5" cy="37" rx="4.5" ry="5" fill="white"/>
<path d="M48.6847 79C90.9401 105.759 120.876 108.515 161 79M203.069 98.883C184.867 138.344 167.431 143.063 131 138.649M9 98.883C27.2017 138.344 44.6384 143.063 81.069 138.649" stroke="black" stroke-width="10"/>
</svg>
